<?xml version="1.0" encoding="UTF-8" standalone="no"?>
<!DOCTYPE svg PUBLIC "-//W3C//DTD SVG 1.1//EN"
 "http://www.w3.org/Graphics/SVG/1.1/DTD/svg11.dtd">
<!-- Generated by graphviz version 2.26.3 (20100126.1600)
 -->
<!-- Title: models_diagram Pages: 1 -->
<svg width="1639pt" height="1088pt"
 viewBox="0.00 0.00 1639.00 1088.00" xmlns="http://www.w3.org/2000/svg" xmlns:xlink="http://www.w3.org/1999/xlink">
<g id="graph1" class="graph" transform="scale(1 1) rotate(0) translate(4 1084)">
<title>models_diagram</title>
<polygon fill="white" stroke="white" points="-4,5 -4,-1084 1636,-1084 1636,5 -4,5"/>
<!-- Sequencing -->
<g id="node1" class="node"><title>Sequencing</title>
<polyline fill="none" stroke="black" points="12,-910 188,-910 "/>
<path fill="none" stroke="black" d="M188,-910C194,-910 200,-916 200,-922"/>
<polyline fill="none" stroke="black" points="200,-922 200,-1004 "/>
<path fill="none" stroke="black" d="M200,-1004C200,-1010 194,-1016 188,-1016"/>
<polyline fill="none" stroke="black" points="188,-1016 12,-1016 "/>
<path fill="none" stroke="black" d="M12,-1016C6,-1016 0,-1010 0,-1004"/>
<polyline fill="none" stroke="black" points="0,-1004 0,-922 "/>
<path fill="none" stroke="black" d="M0,-922C0,-916 6,-910 12,-910"/>
<text text-anchor="middle" x="100" y="-999.4" font-family="Times Roman,serif" font-size="14.00">Sequencing</text>
<polyline fill="none" stroke="black" points="0,-990 200,-990 "/>
<text text-anchor="start" x="8" y="-973.4" font-family="Times Roman,serif" font-size="14.00">expected_sequence :string</text>
<text text-anchor="start" x="8" y="-955.4" font-family="Times Roman,serif" font-size="14.00">abi_file_path :string</text>
<text text-anchor="start" x="8" y="-937.4" font-family="Times Roman,serif" font-size="14.00">created_at :datetime</text>
<text text-anchor="start" x="8" y="-919.4" font-family="Times Roman,serif" font-size="14.00">updated_at :datetime</text>
</g>
<!-- FeatureSet -->
<g id="node2" class="node"><title>FeatureSet</title>
<polyline fill="none" stroke="black" points="229.5,-919 370.5,-919 "/>
<path fill="none" stroke="black" d="M370.5,-919C376.5,-919 382.5,-925 382.5,-931"/>
<polyline fill="none" stroke="black" points="382.5,-931 382.5,-995 "/>
<path fill="none" stroke="black" d="M382.5,-995C382.5,-1001 376.5,-1007 370.5,-1007"/>
<polyline fill="none" stroke="black" points="370.5,-1007 229.5,-1007 "/>
<path fill="none" stroke="black" d="M229.5,-1007C223.5,-1007 217.5,-1001 217.5,-995"/>
<polyline fill="none" stroke="black" points="217.5,-995 217.5,-931 "/>
<path fill="none" stroke="black" d="M217.5,-931C217.5,-925 223.5,-919 229.5,-919"/>
<text text-anchor="middle" x="300" y="-990.4" font-family="Times Roman,serif" font-size="14.00">FeatureSet</text>
<polyline fill="none" stroke="black" points="217.5,-981 382.5,-981 "/>
<text text-anchor="start" x="225.5" y="-964.4" font-family="Times Roman,serif" font-size="14.00">name :string</text>
<text text-anchor="start" x="225.5" y="-946.4" font-family="Times Roman,serif" font-size="14.00">created_at :datetime</text>
<text text-anchor="start" x="225.5" y="-928.4" font-family="Times Roman,serif" font-size="14.00">updated_at :datetime</text>
</g>
<!-- Feature -->
<g id="node5" class="node"><title>Feature</title>
<polyline fill="none" stroke="black" points="229.5,-658 370.5,-658 "/>
<path fill="none" stroke="black" d="M370.5,-658C376.5,-658 382.5,-664 382.5,-670"/>
<polyline fill="none" stroke="black" points="382.5,-670 382.5,-788 "/>
<path fill="none" stroke="black" d="M382.5,-788C382.5,-794 376.5,-800 370.5,-800"/>
<polyline fill="none" stroke="black" points="370.5,-800 229.5,-800 "/>
<path fill="none" stroke="black" d="M229.5,-800C223.5,-800 217.5,-794 217.5,-788"/>
<polyline fill="none" stroke="black" points="217.5,-788 217.5,-670 "/>
<path fill="none" stroke="black" d="M217.5,-670C217.5,-664 223.5,-658 229.5,-658"/>
<text text-anchor="middle" x="300" y="-783.4" font-family="Times Roman,serif" font-size="14.00">Feature</text>
<polyline fill="none" stroke="black" points="217.5,-774 382.5,-774 "/>
<text text-anchor="start" x="225.5" y="-757.4" font-family="Times Roman,serif" font-size="14.00">sequence :string</text>
<text text-anchor="start" x="225.5" y="-739.4" font-family="Times Roman,serif" font-size="14.00">description :string</text>
<text text-anchor="start" x="225.5" y="-721.4" font-family="Times Roman,serif" font-size="14.00">created_at :datetime</text>
<text text-anchor="start" x="225.5" y="-703.4" font-family="Times Roman,serif" font-size="14.00">updated_at :datetime</text>
<text text-anchor="start" x="225.5" y="-685.4" font-family="Times Roman,serif" font-size="14.00">type_name :string</text>
<text text-anchor="start" x="225.5" y="-667.4" font-family="Times Roman,serif" font-size="14.00">name :string</text>
</g>
<!-- FeatureSet&#45;&gt;Feature -->
<g id="edge2" class="edge"><title>FeatureSet&#45;&gt;Feature</title>
<path fill="none" stroke="black" d="M300,-908.855C300,-879.757 300,-843.284 300,-810.801"/>
<polygon fill="black" stroke="black" points="300,-908.986 295.5,-918.986 300,-913.986 300,-918.986 300,-918.986 300,-918.986 300,-913.986 304.5,-918.986 300,-908.986 300,-908.986"/>
<polygon fill="black" stroke="black" points="300,-810.41 304.5,-800.409 300,-805.41 300,-800.41 300,-800.41 300,-800.41 300,-805.41 295.5,-800.41 300,-810.41 300,-810.41"/>
</g>
<!-- Performance -->
<g id="node3" class="node"><title>Performance</title>
<polyline fill="none" stroke="black" points="399.5,-289 564.5,-289 "/>
<path fill="none" stroke="black" d="M564.5,-289C570.5,-289 576.5,-295 576.5,-301"/>
<polyline fill="none" stroke="black" points="576.5,-301 576.5,-401 "/>
<path fill="none" stroke="black" d="M576.5,-401C576.5,-407 570.5,-413 564.5,-413"/>
<polyline fill="none" stroke="black" points="564.5,-413 399.5,-413 "/>
<path fill="none" stroke="black" d="M399.5,-413C393.5,-413 387.5,-407 387.5,-401"/>
<polyline fill="none" stroke="black" points="387.5,-401 387.5,-301 "/>
<path fill="none" stroke="black" d="M387.5,-301C387.5,-295 393.5,-289 399.5,-289"/>
<text text-anchor="middle" x="482" y="-396.4" font-family="Times Roman,serif" font-size="14.00">Performance</text>
<polyline fill="none" stroke="black" points="387.5,-387 576.5,-387 "/>
<text text-anchor="start" x="395.5" y="-370.4" font-family="Times Roman,serif" font-size="14.00">value :float</text>
<text text-anchor="start" x="395.5" y="-352.4" font-family="Times Roman,serif" font-size="14.00">standard_deviation :float</text>
<text text-anchor="start" x="395.5" y="-334.4" font-family="Times Roman,serif" font-size="14.00">notes :string</text>
<text text-anchor="start" x="395.5" y="-316.4" font-family="Times Roman,serif" font-size="14.00">created_at :datetime</text>
<text text-anchor="start" x="395.5" y="-298.4" font-family="Times Roman,serif" font-size="14.00">updated_at :datetime</text>
</g>
<!-- Characterization -->
<g id="node4" class="node"><title>Characterization</title>
<polyline fill="none" stroke="black" points="411.5,-145 552.5,-145 "/>
<path fill="none" stroke="black" d="M552.5,-145C558.5,-145 564.5,-151 564.5,-157"/>
<polyline fill="none" stroke="black" points="564.5,-157 564.5,-239 "/>
<path fill="none" stroke="black" d="M564.5,-239C564.5,-245 558.5,-251 552.5,-251"/>
<polyline fill="none" stroke="black" points="552.5,-251 411.5,-251 "/>
<path fill="none" stroke="black" d="M411.5,-251C405.5,-251 399.5,-245 399.5,-239"/>
<polyline fill="none" stroke="black" points="399.5,-239 399.5,-157 "/>
<path fill="none" stroke="black" d="M399.5,-157C399.5,-151 405.5,-145 411.5,-145"/>
<text text-anchor="middle" x="482" y="-234.4" font-family="Times Roman,serif" font-size="14.00">Characterization</text>
<polyline fill="none" stroke="black" points="399.5,-225 564.5,-225 "/>
<text text-anchor="start" x="407.5" y="-208.4" font-family="Times Roman,serif" font-size="14.00">file_path :string</text>
<text text-anchor="start" x="407.5" y="-190.4" font-family="Times Roman,serif" font-size="14.00">description :string</text>
<text text-anchor="start" x="407.5" y="-172.4" font-family="Times Roman,serif" font-size="14.00">created_at :datetime</text>
<text text-anchor="start" x="407.5" y="-154.4" font-family="Times Roman,serif" font-size="14.00">updated_at :datetime</text>
</g>
<!-- Performance&#45;&gt;Characterization -->
<g id="edge4" class="edge"><title>Performance&#45;&gt;Characterization</title>
<path fill="none" stroke="black" d="M482,-278.501C482,-272.783 482,-267.035 482,-261.386"/>
<polygon fill="black" stroke="black" points="482,-278.769 477.5,-288.769 482,-283.769 482,-288.769 482,-288.769 482,-288.769 482,-283.769 486.5,-288.769 482,-278.769 482,-278.769"/>
<polygon fill="black" stroke="black" points="482,-261.351 486.5,-251.351 482,-256.351 482,-251.351 482,-251.351 482,-251.351 482,-256.351 477.5,-251.351 482,-261.351 482,-261.351"/>
</g>
<!-- Measurement -->
<g id="node7" class="node"><title>Measurement</title>
<polyline fill="none" stroke="black" points="315,-1 467,-1 "/>
<path fill="none" stroke="black" d="M467,-1C473,-1 479,-7 479,-13"/>
<polyline fill="none" stroke="black" points="479,-13 479,-95 "/>
<path fill="none" stroke="black" d="M479,-95C479,-101 473,-107 467,-107"/>
<polyline fill="none" stroke="black" points="467,-107 315,-107 "/>
<path fill="none" stroke="black" d="M315,-107C309,-107 303,-101 303,-95"/>
<polyline fill="none" stroke="black" points="303,-95 303,-13 "/>
<path fill="none" stroke="black" d="M303,-13C303,-7 309,-1 315,-1"/>
<text text-anchor="middle" x="391" y="-90.4" font-family="Times Roman,serif" font-size="14.00">Measurement</text>
<polyline fill="none" stroke="black" points="303,-81 479,-81 "/>
<text text-anchor="start" x="311" y="-64.4" font-family="Times Roman,serif" font-size="14.00">value :float</text>
<text text-anchor="start" x="311" y="-46.4" font-family="Times Roman,serif" font-size="14.00">measured_at :datetime</text>
<text text-anchor="start" x="311" y="-28.4" font-family="Times Roman,serif" font-size="14.00">created_at :datetime</text>
<text text-anchor="start" x="311" y="-10.4" font-family="Times Roman,serif" font-size="14.00">updated_at :datetime</text>
</g>
<!-- Characterization&#45;&gt;Measurement -->
<g id="edge6" class="edge"><title>Characterization&#45;&gt;Measurement</title>
<path fill="none" stroke="black" d="M442.895,-136.119C438.375,-128.967 433.769,-121.679 429.261,-114.545"/>
<polygon fill="black" stroke="black" points="443.031,-136.335 444.569,-147.193 445.702,-140.562 448.374,-144.789 448.374,-144.789 448.374,-144.789 445.702,-140.562 452.178,-142.385 443.031,-136.335 443.031,-136.335"/>
<ellipse fill="black" stroke="black" cx="426.929" cy="-110.855" rx="4.00002" ry="4.00002"/>
</g>
<!-- CharacterizationType -->
<g id="node6" class="node"><title>CharacterizationType</title>
<polyline fill="none" stroke="black" points="217.5,-307 358.5,-307 "/>
<path fill="none" stroke="black" d="M358.5,-307C364.5,-307 370.5,-313 370.5,-319"/>
<polyline fill="none" stroke="black" points="370.5,-319 370.5,-383 "/>
<path fill="none" stroke="black" d="M370.5,-383C370.5,-389 364.5,-395 358.5,-395"/>
<polyline fill="none" stroke="black" points="358.5,-395 217.5,-395 "/>
<path fill="none" stroke="black" d="M217.5,-395C211.5,-395 205.5,-389 205.5,-383"/>
<polyline fill="none" stroke="black" points="205.5,-383 205.5,-319 "/>
<path fill="none" stroke="black" d="M205.5,-319C205.5,-313 211.5,-307 217.5,-307"/>
<text text-anchor="middle" x="288" y="-378.4" font-family="Times Roman,serif" font-size="14.00">CharacterizationType</text>
<polyline fill="none" stroke="black" points="205.5,-369 370.5,-369 "/>
<text text-anchor="start" x="213.5" y="-352.4" font-family="Times Roman,serif" font-size="14.00">name :string</text>
<text text-anchor="start" x="213.5" y="-334.4" font-family="Times Roman,serif" font-size="14.00">created_at :datetime</text>
<text text-anchor="start" x="213.5" y="-316.4" font-family="Times Roman,serif" font-size="14.00">updated_at :datetime</text>
</g>
<!-- CharacterizationType&#45;&gt;Characterization -->
<g id="edge8" class="edge"><title>CharacterizationType&#45;&gt;Characterization</title>
<path fill="none" stroke="black" d="M351.739,-300.732C369.655,-286.602 389.293,-271.115 407.763,-256.547"/>
<polygon fill="black" stroke="black" points="351.705,-300.759 341.066,-303.418 347.779,-303.855 343.853,-306.951 343.853,-306.951 343.853,-306.951 347.779,-303.855 346.639,-310.485 351.705,-300.759 351.705,-300.759"/>
<ellipse fill="black" stroke="black" cx="411.37" cy="-253.703" rx="4.00002" ry="4.00002"/>
</g>
<!-- AdminUser -->
<g id="node8" class="node"><title>AdminUser</title>
<polyline fill="none" stroke="black" points="1061,-847 1291,-847 "/>
<path fill="none" stroke="black" d="M1291,-847C1297,-847 1303,-853 1303,-859"/>
<polyline fill="none" stroke="black" points="1303,-859 1303,-1067 "/>
<path fill="none" stroke="black" d="M1303,-1067C1303,-1073 1297,-1079 1291,-1079"/>
<polyline fill="none" stroke="black" points="1291,-1079 1061,-1079 "/>
<path fill="none" stroke="black" d="M1061,-1079C1055,-1079 1049,-1073 1049,-1067"/>
<polyline fill="none" stroke="black" points="1049,-1067 1049,-859 "/>
<path fill="none" stroke="black" d="M1049,-859C1049,-853 1055,-847 1061,-847"/>
<text text-anchor="middle" x="1176" y="-1062.4" font-family="Times Roman,serif" font-size="14.00">AdminUser</text>
<polyline fill="none" stroke="black" points="1049,-1053 1303,-1053 "/>
<text text-anchor="start" x="1057" y="-1036.4" font-family="Times Roman,serif" font-size="14.00">email :string</text>
<text text-anchor="start" x="1057" y="-1018.4" font-family="Times Roman,serif" font-size="14.00">encrypted_password :string</text>
<text text-anchor="start" x="1057" y="-1000.4" font-family="Times Roman,serif" font-size="14.00">reset_password_token :string</text>
<text text-anchor="start" x="1057" y="-982.4" font-family="Times Roman,serif" font-size="14.00">reset_password_sent_at :datetime</text>
<text text-anchor="start" x="1057" y="-964.4" font-family="Times Roman,serif" font-size="14.00">remember_created_at :datetime</text>
<text text-anchor="start" x="1057" y="-946.4" font-family="Times Roman,serif" font-size="14.00">current_sign_in_at :datetime</text>
<text text-anchor="start" x="1057" y="-928.4" font-family="Times Roman,serif" font-size="14.00">last_sign_in_at :datetime</text>
<text text-anchor="start" x="1057" y="-910.4" font-family="Times Roman,serif" font-size="14.00">current_sign_in_ip :string</text>
<text text-anchor="start" x="1057" y="-892.4" font-family="Times Roman,serif" font-size="14.00">last_sign_in_ip :string</text>
<text text-anchor="start" x="1057" y="-874.4" font-family="Times Roman,serif" font-size="14.00">created_at :datetime</text>
<text text-anchor="start" x="1057" y="-856.4" font-family="Times Roman,serif" font-size="14.00">updated_at :datetime</text>
</g>
<!-- AnnotationType -->
<g id="node9" class="node"><title>AnnotationType</title>
<polyline fill="none" stroke="black" points="514.5,-919 655.5,-919 "/>
<path fill="none" stroke="black" d="M655.5,-919C661.5,-919 667.5,-925 667.5,-931"/>
<polyline fill="none" stroke="black" points="667.5,-931 667.5,-995 "/>
<path fill="none" stroke="black" d="M667.5,-995C667.5,-1001 661.5,-1007 655.5,-1007"/>
<polyline fill="none" stroke="black" points="655.5,-1007 514.5,-1007 "/>
<path fill="none" stroke="black" d="M514.5,-1007C508.5,-1007 502.5,-1001 502.5,-995"/>
<polyline fill="none" stroke="black" points="502.5,-995 502.5,-931 "/>
<path fill="none" stroke="black" d="M502.5,-931C502.5,-925 508.5,-919 514.5,-919"/>
<text text-anchor="middle" x="585" y="-990.4" font-family="Times Roman,serif" font-size="14.00">AnnotationType</text>
<polyline fill="none" stroke="black" points="502.5,-981 667.5,-981 "/>
<text text-anchor="start" x="510.5" y="-964.4" font-family="Times Roman,serif" font-size="14.00">name :string</text>
<text text-anchor="start" x="510.5" y="-946.4" font-family="Times Roman,serif" font-size="14.00">created_at :datetime</text>
<text text-anchor="start" x="510.5" y="-928.4" font-family="Times Roman,serif" font-size="14.00">updated_at :datetime</text>
</g>
<!-- Annotation -->
<g id="node13" class="node"><title>Annotation</title>
<polyline fill="none" stroke="black" points="593.5,-676 734.5,-676 "/>
<path fill="none" stroke="black" d="M734.5,-676C740.5,-676 746.5,-682 746.5,-688"/>
<polyline fill="none" stroke="black" points="746.5,-688 746.5,-770 "/>
<path fill="none" stroke="black" d="M746.5,-770C746.5,-776 740.5,-782 734.5,-782"/>
<polyline fill="none" stroke="black" points="734.5,-782 593.5,-782 "/>
<path fill="none" stroke="black" d="M593.5,-782C587.5,-782 581.5,-776 581.5,-770"/>
<polyline fill="none" stroke="black" points="581.5,-770 581.5,-688 "/>
<path fill="none" stroke="black" d="M581.5,-688C581.5,-682 587.5,-676 593.5,-676"/>
<text text-anchor="middle" x="664" y="-765.4" font-family="Times Roman,serif" font-size="14.00">Annotation</text>
<polyline fill="none" stroke="black" points="581.5,-756 746.5,-756 "/>
<text text-anchor="start" x="589.5" y="-739.4" font-family="Times Roman,serif" font-size="14.00">start :integer</text>
<text text-anchor="start" x="589.5" y="-721.4" font-family="Times Roman,serif" font-size="14.00">end :integer</text>
<text text-anchor="start" x="589.5" y="-703.4" font-family="Times Roman,serif" font-size="14.00">created_at :datetime</text>
<text text-anchor="start" x="589.5" y="-685.4" font-family="Times Roman,serif" font-size="14.00">updated_at :datetime</text>
</g>
<!-- AnnotationType&#45;&gt;Annotation -->
<g id="edge10" class="edge"><title>AnnotationType&#45;&gt;Annotation</title>
<path fill="none" stroke="black" d="M603.197,-909.099C615.202,-873.54 630.953,-826.887 643.415,-789.973"/>
<polygon fill="black" stroke="black" points="603.058,-909.512 595.596,-917.547 601.459,-914.249 599.859,-918.986 599.859,-918.986 599.859,-918.986 601.459,-914.249 604.123,-920.426 603.058,-909.512 603.058,-909.512"/>
<ellipse fill="black" stroke="black" cx="644.742" cy="-786.041" rx="4.00001" ry="4.00001"/>
</g>
<!-- User -->
<g id="node10" class="node"><title>User</title>
<polyline fill="none" stroke="black" points="1332.5,-883 1619.5,-883 "/>
<path fill="none" stroke="black" d="M1619.5,-883C1625.5,-883 1631.5,-889 1631.5,-895"/>
<polyline fill="none" stroke="black" points="1631.5,-895 1631.5,-1031 "/>
<path fill="none" stroke="black" d="M1631.5,-1031C1631.5,-1037 1625.5,-1043 1619.5,-1043"/>
<polyline fill="none" stroke="black" points="1619.5,-1043 1332.5,-1043 "/>
<path fill="none" stroke="black" d="M1332.5,-1043C1326.5,-1043 1320.5,-1037 1320.5,-1031"/>
<polyline fill="none" stroke="black" points="1320.5,-1031 1320.5,-895 "/>
<path fill="none" stroke="black" d="M1320.5,-895C1320.5,-889 1326.5,-883 1332.5,-883"/>
<text text-anchor="middle" x="1476" y="-1026.4" font-family="Times Roman,serif" font-size="14.00">User</text>
<polyline fill="none" stroke="black" points="1320.5,-1017 1631.5,-1017 "/>
<text text-anchor="start" x="1328.5" y="-1000.4" font-family="Times Roman,serif" font-size="14.00">email :string</text>
<text text-anchor="start" x="1328.5" y="-982.4" font-family="Times Roman,serif" font-size="14.00">crypted_password :string</text>
<text text-anchor="start" x="1328.5" y="-964.4" font-family="Times Roman,serif" font-size="14.00">salt :string</text>
<text text-anchor="start" x="1328.5" y="-946.4" font-family="Times Roman,serif" font-size="14.00">created_at :datetime</text>
<text text-anchor="start" x="1328.5" y="-928.4" font-family="Times Roman,serif" font-size="14.00">updated_at :datetime</text>
<text text-anchor="start" x="1328.5" y="-910.4" font-family="Times Roman,serif" font-size="14.00">remember_me_token :string</text>
<text text-anchor="start" x="1328.5" y="-892.4" font-family="Times Roman,serif" font-size="14.00">remember_me_token_expires_at :datetime</text>
</g>
<!-- Part -->
<g id="node11" class="node"><title>Part</title>
<polyline fill="none" stroke="black" points="696.5,-901 837.5,-901 "/>
<path fill="none" stroke="black" d="M837.5,-901C843.5,-901 849.5,-907 849.5,-913"/>
<polyline fill="none" stroke="black" points="849.5,-913 849.5,-1013 "/>
<path fill="none" stroke="black" d="M849.5,-1013C849.5,-1019 843.5,-1025 837.5,-1025"/>
<polyline fill="none" stroke="black" points="837.5,-1025 696.5,-1025 "/>
<path fill="none" stroke="black" d="M696.5,-1025C690.5,-1025 684.5,-1019 684.5,-1013"/>
<polyline fill="none" stroke="black" points="684.5,-1013 684.5,-913 "/>
<path fill="none" stroke="black" d="M684.5,-913C684.5,-907 690.5,-901 696.5,-901"/>
<text text-anchor="middle" x="767" y="-1008.4" font-family="Times Roman,serif" font-size="14.00">Part</text>
<polyline fill="none" stroke="black" points="684.5,-999 849.5,-999 "/>
<text text-anchor="start" x="692.5" y="-982.4" font-family="Times Roman,serif" font-size="14.00">sequence :string</text>
<text text-anchor="start" x="692.5" y="-964.4" font-family="Times Roman,serif" font-size="14.00">description :string</text>
<text text-anchor="start" x="692.5" y="-946.4" font-family="Times Roman,serif" font-size="14.00">location :string</text>
<text text-anchor="start" x="692.5" y="-928.4" font-family="Times Roman,serif" font-size="14.00">created_at :datetime</text>
<text text-anchor="start" x="692.5" y="-910.4" font-family="Times Roman,serif" font-size="14.00">updated_at :datetime</text>
</g>
<!-- Part&#45;&gt;Annotation -->
<g id="edge14" class="edge"><title>Part&#45;&gt;Annotation</title>
<path fill="none" stroke="black" d="M735.585,-891.631C721.23,-859.017 704.405,-820.794 690.675,-789.601"/>
<polygon fill="black" stroke="black" points="735.64,-891.754 735.55,-902.72 737.654,-896.33 739.668,-900.907 739.668,-900.907 739.668,-900.907 737.654,-896.33 743.787,-899.094 735.64,-891.754 735.64,-891.754"/>
<ellipse fill="black" stroke="black" cx="689.047" cy="-785.902" rx="4.00002" ry="4.00002"/>
</g>
<!-- Plasmid -->
<g id="node17" class="node"><title>Plasmid</title>
<polyline fill="none" stroke="black" points="776,-685 964,-685 "/>
<path fill="none" stroke="black" d="M964,-685C970,-685 976,-691 976,-697"/>
<polyline fill="none" stroke="black" points="976,-697 976,-761 "/>
<path fill="none" stroke="black" d="M976,-761C976,-767 970,-773 964,-773"/>
<polyline fill="none" stroke="black" points="964,-773 776,-773 "/>
<path fill="none" stroke="black" d="M776,-773C770,-773 764,-767 764,-761"/>
<polyline fill="none" stroke="black" points="764,-761 764,-697 "/>
<path fill="none" stroke="black" d="M764,-697C764,-691 770,-685 776,-685"/>
<text text-anchor="middle" x="870" y="-756.4" font-family="Times Roman,serif" font-size="14.00">Plasmid</text>
<polyline fill="none" stroke="black" points="764,-747 976,-747 "/>
<text text-anchor="start" x="772" y="-730.4" font-family="Times Roman,serif" font-size="14.00">created_at :datetime</text>
<text text-anchor="start" x="772" y="-712.4" font-family="Times Roman,serif" font-size="14.00">updated_at :datetime</text>
<text text-anchor="start" x="772" y="-694.4" font-family="Times Roman,serif" font-size="14.00">eou_insertion_point :integer</text>
</g>
<!-- Part&#45;&gt;Plasmid -->
<g id="edge12" class="edge"><title>Part&#45;&gt;Plasmid</title>
<path fill="none" stroke="black" d="M798.565,-891.289C814.268,-855.615 832.895,-813.298 847.19,-780.821"/>
<polygon fill="black" stroke="black" points="798.36,-891.754 790.213,-899.094 796.346,-896.33 794.332,-900.907 794.332,-900.907 794.332,-900.907 796.346,-896.33 798.45,-902.72 798.36,-891.754 798.36,-891.754"/>
<ellipse fill="black" stroke="black" cx="848.929" cy="-776.869" rx="4.00002" ry="4.00002"/>
</g>
<!-- PerformanceType -->
<g id="node12" class="node"><title>PerformanceType</title>
<polyline fill="none" stroke="black" points="358.5,-487 499.5,-487 "/>
<path fill="none" stroke="black" d="M499.5,-487C505.5,-487 511.5,-493 511.5,-499"/>
<polyline fill="none" stroke="black" points="511.5,-499 511.5,-563 "/>
<path fill="none" stroke="black" d="M511.5,-563C511.5,-569 505.5,-575 499.5,-575"/>
<polyline fill="none" stroke="black" points="499.5,-575 358.5,-575 "/>
<path fill="none" stroke="black" d="M358.5,-575C352.5,-575 346.5,-569 346.5,-563"/>
<polyline fill="none" stroke="black" points="346.5,-563 346.5,-499 "/>
<path fill="none" stroke="black" d="M346.5,-499C346.5,-493 352.5,-487 358.5,-487"/>
<text text-anchor="middle" x="429" y="-558.4" font-family="Times Roman,serif" font-size="14.00">PerformanceType</text>
<polyline fill="none" stroke="black" points="346.5,-549 511.5,-549 "/>
<text text-anchor="start" x="354.5" y="-532.4" font-family="Times Roman,serif" font-size="14.00">name :string</text>
<text text-anchor="start" x="354.5" y="-514.4" font-family="Times Roman,serif" font-size="14.00">created_at :datetime</text>
<text text-anchor="start" x="354.5" y="-496.4" font-family="Times Roman,serif" font-size="14.00">updated_at :datetime</text>
</g>
<!-- PerformanceType&#45;&gt;Performance -->
<g id="edge16" class="edge"><title>PerformanceType&#45;&gt;Performance</title>
<path fill="none" stroke="black" d="M444.801,-477.335C449.991,-459.709 455.839,-439.849 461.334,-421.185"/>
<polygon fill="black" stroke="black" points="444.79,-477.374 437.648,-485.696 443.378,-482.171 441.965,-486.967 441.965,-486.967 441.965,-486.967 443.378,-482.171 446.282,-488.238 444.79,-477.374 444.79,-477.374"/>
<ellipse fill="black" stroke="black" cx="462.535" cy="-417.107" rx="4.00001" ry="4.00001"/>
</g>
<!-- Replicate -->
<g id="node14" class="node"><title>Replicate</title>
<polyline fill="none" stroke="black" points="605.5,-298 746.5,-298 "/>
<path fill="none" stroke="black" d="M746.5,-298C752.5,-298 758.5,-304 758.5,-310"/>
<polyline fill="none" stroke="black" points="758.5,-310 758.5,-392 "/>
<path fill="none" stroke="black" d="M758.5,-392C758.5,-398 752.5,-404 746.5,-404"/>
<polyline fill="none" stroke="black" points="746.5,-404 605.5,-404 "/>
<path fill="none" stroke="black" d="M605.5,-404C599.5,-404 593.5,-398 593.5,-392"/>
<polyline fill="none" stroke="black" points="593.5,-392 593.5,-310 "/>
<path fill="none" stroke="black" d="M593.5,-310C593.5,-304 599.5,-298 605.5,-298"/>
<text text-anchor="middle" x="676" y="-387.4" font-family="Times Roman,serif" font-size="14.00">Replicate</text>
<polyline fill="none" stroke="black" points="593.5,-378 758.5,-378 "/>
<text text-anchor="start" x="601.5" y="-361.4" font-family="Times Roman,serif" font-size="14.00">number :integer</text>
<text text-anchor="start" x="601.5" y="-343.4" font-family="Times Roman,serif" font-size="14.00">description :string</text>
<text text-anchor="start" x="601.5" y="-325.4" font-family="Times Roman,serif" font-size="14.00">created_at :datetime</text>
<text text-anchor="start" x="601.5" y="-307.4" font-family="Times Roman,serif" font-size="14.00">updated_at :datetime</text>
</g>
<!-- Replicate&#45;&gt;Characterization -->
<g id="edge18" class="edge"><title>Replicate&#45;&gt;Characterization</title>
<path fill="none" stroke="black" d="M600.521,-291.473C585.941,-279.974 570.677,-267.936 556.14,-256.471"/>
<polygon fill="black" stroke="black" points="600.841,-291.725 605.906,-301.451 604.767,-294.821 608.693,-297.917 608.693,-297.917 608.693,-297.917 604.767,-294.821 611.479,-294.384 600.841,-291.725 600.841,-291.725"/>
<ellipse fill="black" stroke="black" cx="552.657" cy="-253.725" rx="4.00002" ry="4.00002"/>
</g>
<!-- MeasurementType -->
<g id="node15" class="node"><title>MeasurementType</title>
<polyline fill="none" stroke="black" points="229.5,-154 370.5,-154 "/>
<path fill="none" stroke="black" d="M370.5,-154C376.5,-154 382.5,-160 382.5,-166"/>
<polyline fill="none" stroke="black" points="382.5,-166 382.5,-230 "/>
<path fill="none" stroke="black" d="M382.5,-230C382.5,-236 376.5,-242 370.5,-242"/>
<polyline fill="none" stroke="black" points="370.5,-242 229.5,-242 "/>
<path fill="none" stroke="black" d="M229.5,-242C223.5,-242 217.5,-236 217.5,-230"/>
<polyline fill="none" stroke="black" points="217.5,-230 217.5,-166 "/>
<path fill="none" stroke="black" d="M217.5,-166C217.5,-160 223.5,-154 229.5,-154"/>
<text text-anchor="middle" x="300" y="-225.4" font-family="Times Roman,serif" font-size="14.00">MeasurementType</text>
<polyline fill="none" stroke="black" points="217.5,-216 382.5,-216 "/>
<text text-anchor="start" x="225.5" y="-199.4" font-family="Times Roman,serif" font-size="14.00">name :string</text>
<text text-anchor="start" x="225.5" y="-181.4" font-family="Times Roman,serif" font-size="14.00">created_at :datetime</text>
<text text-anchor="start" x="225.5" y="-163.4" font-family="Times Roman,serif" font-size="14.00">updated_at :datetime</text>
</g>
<!-- MeasurementType&#45;&gt;Measurement -->
<g id="edge20" class="edge"><title>MeasurementType&#45;&gt;Measurement</title>
<path fill="none" stroke="black" d="M333.609,-144.817C339.931,-134.812 346.583,-124.286 353.027,-114.089"/>
<polygon fill="black" stroke="black" points="333.388,-145.167 324.241,-151.216 330.717,-149.394 328.046,-153.62 328.046,-153.62 328.046,-153.62 330.717,-149.394 331.85,-156.024 333.388,-145.167 333.388,-145.167"/>
<ellipse fill="black" stroke="black" cx="355.312" cy="-110.473" rx="4.00002" ry="4.00002"/>
</g>
<!-- Organism -->
<g id="node16" class="node"><title>Organism</title>
<polyline fill="none" stroke="black" points="411.5,-649 552.5,-649 "/>
<path fill="none" stroke="black" d="M552.5,-649C558.5,-649 564.5,-655 564.5,-661"/>
<polyline fill="none" stroke="black" points="564.5,-661 564.5,-797 "/>
<path fill="none" stroke="black" d="M564.5,-797C564.5,-803 558.5,-809 552.5,-809"/>
<polyline fill="none" stroke="black" points="552.5,-809 411.5,-809 "/>
<path fill="none" stroke="black" d="M411.5,-809C405.5,-809 399.5,-803 399.5,-797"/>
<polyline fill="none" stroke="black" points="399.5,-797 399.5,-661 "/>
<path fill="none" stroke="black" d="M399.5,-661C399.5,-655 405.5,-649 411.5,-649"/>
<text text-anchor="middle" x="482" y="-792.4" font-family="Times Roman,serif" font-size="14.00">Organism</text>
<polyline fill="none" stroke="black" points="399.5,-783 564.5,-783 "/>
<text text-anchor="start" x="407.5" y="-766.4" font-family="Times Roman,serif" font-size="14.00">species :string</text>
<text text-anchor="start" x="407.5" y="-748.4" font-family="Times Roman,serif" font-size="14.00">strain :string</text>
<text text-anchor="start" x="407.5" y="-730.4" font-family="Times Roman,serif" font-size="14.00">substrain :string</text>
<text text-anchor="start" x="407.5" y="-712.4" font-family="Times Roman,serif" font-size="14.00">url :string</text>
<text text-anchor="start" x="407.5" y="-694.4" font-family="Times Roman,serif" font-size="14.00">location :string</text>
<text text-anchor="start" x="407.5" y="-676.4" font-family="Times Roman,serif" font-size="14.00">created_at :datetime</text>
<text text-anchor="start" x="407.5" y="-658.4" font-family="Times Roman,serif" font-size="14.00">updated_at :datetime</text>
</g>
<!-- Strain -->
<g id="node18" class="node"><title>Strain</title>
<polyline fill="none" stroke="black" points="540.5,-451 811.5,-451 "/>
<path fill="none" stroke="black" d="M811.5,-451C817.5,-451 823.5,-457 823.5,-463"/>
<polyline fill="none" stroke="black" points="823.5,-463 823.5,-599 "/>
<path fill="none" stroke="black" d="M823.5,-599C823.5,-605 817.5,-611 811.5,-611"/>
<polyline fill="none" stroke="black" points="811.5,-611 540.5,-611 "/>
<path fill="none" stroke="black" d="M540.5,-611C534.5,-611 528.5,-605 528.5,-599"/>
<polyline fill="none" stroke="black" points="528.5,-599 528.5,-463 "/>
<path fill="none" stroke="black" d="M528.5,-463C528.5,-457 534.5,-451 540.5,-451"/>
<text text-anchor="middle" x="676" y="-594.4" font-family="Times Roman,serif" font-size="14.00">Strain</text>
<polyline fill="none" stroke="black" points="528.5,-585 823.5,-585 "/>
<text text-anchor="start" x="536.5" y="-568.4" font-family="Times Roman,serif" font-size="14.00">location :string</text>
<text text-anchor="start" x="536.5" y="-550.4" font-family="Times Roman,serif" font-size="14.00">created_at :datetime</text>
<text text-anchor="start" x="536.5" y="-532.4" font-family="Times Roman,serif" font-size="14.00">updated_at :datetime</text>
<text text-anchor="start" x="536.5" y="-514.4" font-family="Times Roman,serif" font-size="14.00">chromosomal_integration_index :integer</text>
<text text-anchor="start" x="536.5" y="-496.4" font-family="Times Roman,serif" font-size="14.00">before_sequence :string</text>
<text text-anchor="start" x="536.5" y="-478.4" font-family="Times Roman,serif" font-size="14.00">after_sequence :string</text>
<text text-anchor="start" x="536.5" y="-460.4" font-family="Times Roman,serif" font-size="14.00">location_path :string</text>
</g>
<!-- Organism&#45;&gt;Strain -->
<g id="edge22" class="edge"><title>Organism&#45;&gt;Strain</title>
<path fill="none" stroke="black" d="M567.806,-641.424C575.7,-633.368 583.693,-625.21 591.574,-617.166"/>
<polygon fill="black" stroke="black" points="567.626,-641.608 557.413,-645.602 564.127,-645.18 560.628,-648.751 560.628,-648.751 560.628,-648.751 564.127,-645.18 563.842,-651.901 567.626,-641.608 567.626,-641.608"/>
<ellipse fill="black" stroke="black" cx="594.776" cy="-613.899" rx="4.00002" ry="4.00002"/>
</g>
<!-- Plasmid&#45;&gt;Strain -->
<g id="edge24" class="edge"><title>Plasmid&#45;&gt;Strain</title>
<path fill="none" stroke="black" d="M819.328,-677.284C801.229,-658.811 780.316,-637.467 760.157,-616.892"/>
<polygon fill="black" stroke="black" points="819.464,-677.422 823.248,-687.714 822.963,-680.993 826.463,-684.565 826.463,-684.565 826.463,-684.565 822.963,-680.993 829.677,-681.416 819.464,-677.422 819.464,-677.422"/>
<ellipse fill="black" stroke="black" cx="757.294" cy="-613.97" rx="4.00002" ry="4.00002"/>
</g>
<!-- Strain&#45;&gt;Performance -->
<g id="edge26" class="edge"><title>Strain&#45;&gt;Performance</title>
<path fill="none" stroke="black" d="M582.122,-443.897C572.987,-435.421 563.815,-426.911 554.931,-418.668"/>
<polygon fill="black" stroke="black" points="582.166,-443.937 586.436,-454.038 585.831,-447.338 589.496,-450.739 589.496,-450.739 589.496,-450.739 585.831,-447.338 592.557,-447.44 582.166,-443.937 582.166,-443.937"/>
<ellipse fill="black" stroke="black" cx="551.762" cy="-415.728" rx="4.00002" ry="4.00002"/>
</g>
<!-- Strain&#45;&gt;Replicate -->
<g id="edge28" class="edge"><title>Strain&#45;&gt;Replicate</title>
<path fill="none" stroke="black" d="M676,-440.737C676,-431.172 676,-421.611 676,-412.486"/>
<polygon fill="black" stroke="black" points="676,-440.739 671.5,-450.739 676,-445.739 676,-450.739 676,-450.739 676,-450.739 676,-445.739 680.5,-450.739 676,-440.739 676,-440.739"/>
<ellipse fill="black" stroke="black" cx="676" cy="-408.241" rx="4" ry="4"/>
</g>
<!-- Eou -->
<g id="node19" class="node"><title>Eou</title>
<polyline fill="none" stroke="black" points="878.5,-928 1019.5,-928 "/>
<path fill="none" stroke="black" d="M1019.5,-928C1025.5,-928 1031.5,-934 1031.5,-940"/>
<polyline fill="none" stroke="black" points="1031.5,-940 1031.5,-986 "/>
<path fill="none" stroke="black" d="M1031.5,-986C1031.5,-992 1025.5,-998 1019.5,-998"/>
<polyline fill="none" stroke="black" points="1019.5,-998 878.5,-998 "/>
<path fill="none" stroke="black" d="M878.5,-998C872.5,-998 866.5,-992 866.5,-986"/>
<polyline fill="none" stroke="black" points="866.5,-986 866.5,-940 "/>
<path fill="none" stroke="black" d="M866.5,-940C866.5,-934 872.5,-928 878.5,-928"/>
<text text-anchor="middle" x="949" y="-981.4" font-family="Times Roman,serif" font-size="14.00">Eou</text>
<polyline fill="none" stroke="black" points="866.5,-972 1031.5,-972 "/>
<text text-anchor="start" x="874.5" y="-955.4" font-family="Times Roman,serif" font-size="14.00">created_at :datetime</text>
<text text-anchor="start" x="874.5" y="-937.4" font-family="Times Roman,serif" font-size="14.00">updated_at :datetime</text>
</g>
<!-- Eou&#45;&gt;Plasmid -->
<g id="edge30" class="edge"><title>Eou&#45;&gt;Plasmid</title>
<path fill="none" stroke="black" d="M933.922,-918.338C920.681,-879.12 901.415,-822.053 887.499,-780.833"/>
<polygon fill="black" stroke="black" points="933.974,-918.493 932.909,-929.407 935.574,-923.231 937.173,-927.968 937.173,-927.968 937.173,-927.968 935.574,-923.231 941.436,-926.528 933.974,-918.493 933.974,-918.493"/>
<ellipse fill="black" stroke="black" cx="886.158" cy="-776.859" rx="4.00001" ry="4.00001"/>
</g>
</g>
</svg>
